<svg width="1200" height="390" viewBox="0 0 1200 390" fill="none" xmlns="http://www.w3.org/2000/svg">
  <defs>
    <linearGradient id="background" x1="0" y1="0" x2="1200" y2="390" gradientUnits="userSpaceOnUse">
      <stop offset="0" stop-color="#08111F"/>
      <stop offset="0.45" stop-color="#102A43"/>
      <stop offset="1" stop-color="#0B3B5A"/>
    </linearGradient>
    <radialGradient id="glowBlue" cx="0" cy="0" r="1" gradientUnits="userSpaceOnUse" gradientTransform="translate(930 120) rotate(132) scale(300 210)">
      <stop stop-color="#38BDF8" stop-opacity="0.34"/>
      <stop offset="1" stop-color="#38BDF8" stop-opacity="0"/>
    </radialGradient>
    <radialGradient id="glowGreen" cx="0" cy="0" r="1" gradientUnits="userSpaceOnUse" gradientTransform="translate(720 310) rotate(24) scale(360 180)">
      <stop stop-color="#34D399" stop-opacity="0.22"/>
      <stop offset="1" stop-color="#34D399" stop-opacity="0"/>
    </radialGradient>
    <filter id="softShadow" x="-30%" y="-30%" width="160%" height="160%">
      <feDropShadow dx="0" dy="14" stdDeviation="14" flood-color="#020617" flood-opacity="0.38"/>
    </filter>
  </defs>

  <rect width="1200" height="390" rx="30" fill="url(#background)"/>
  <rect width="1200" height="390" rx="30" fill="url(#glowBlue)"/>
  <rect width="1200" height="390" rx="30" fill="url(#glowGreen)"/>

  <g opacity="0.22">
    <path d="M0 70H1200" stroke="#93C5FD"/>
    <path d="M0 140H1200" stroke="#93C5FD"/>
    <path d="M0 210H1200" stroke="#93C5FD"/>
    <path d="M0 280H1200" stroke="#93C5FD"/>
    <path d="M160 0V390" stroke="#93C5FD"/>
    <path d="M320 0V390" stroke="#93C5FD"/>
    <path d="M480 0V390" stroke="#93C5FD"/>
    <path d="M640 0V390" stroke="#93C5FD"/>
    <path d="M800 0V390" stroke="#93C5FD"/>
    <path d="M960 0V390" stroke="#93C5FD"/>
  </g>

  <g transform="translate(54 66)">
    <rect x="0" y="0" width="138" height="30" rx="15" fill="#0EA5E9" fill-opacity="0.18" stroke="#38BDF8" stroke-opacity="0.65"/>
    <text x="18" y="20" font-family="Segoe UI, Arial, sans-serif" font-size="13" font-weight="800" letter-spacing="1.2" fill="#BAE6FD">GLASGOW, UK</text>

    <text x="0" y="82" font-family="Segoe UI, Arial, sans-serif" font-size="52" font-weight="850" fill="#FFFFFF">Massab Iftikhar</text>
    <text x="0" y="123" font-family="Segoe UI, Arial, sans-serif" font-size="24" font-weight="750" fill="#A7F3D0">Data Analysis + Software Engineering</text>
    <text x="0" y="164" font-family="Segoe UI, Arial, sans-serif" font-size="17" fill="#DCEBFF">Python, SQL, dashboards, APIs, ML models, and production data workflows.</text>

    <g transform="translate(0 204)">
      <rect x="0" y="0" width="94" height="30" rx="8" fill="#111827" stroke="#334155"/>
      <text x="18" y="20" font-family="Segoe UI, Arial, sans-serif" font-size="12" font-weight="700" fill="#E5E7EB">Python</text>
      <rect x="106" y="0" width="72" height="30" rx="8" fill="#0F766E" fill-opacity="0.82"/>
      <text x="130" y="20" font-family="Segoe UI, Arial, sans-serif" font-size="12" font-weight="700" fill="#ECFEFF">SQL</text>
      <rect x="190" y="0" width="92" height="30" rx="8" fill="#1D4ED8" fill-opacity="0.82"/>
      <text x="211" y="20" font-family="Segoe UI, Arial, sans-serif" font-size="12" font-weight="700" fill="#EFF6FF">Pandas</text>
      <rect x="294" y="0" width="122" height="30" rx="8" fill="#7C3AED" fill-opacity="0.78"/>
      <text x="315" y="20" font-family="Segoe UI, Arial, sans-serif" font-size="12" font-weight="700" fill="#F5F3FF">TensorFlow</text>
      <rect x="428" y="0" width="92" height="30" rx="8" fill="#EA580C" fill-opacity="0.82"/>
      <text x="449" y="20" font-family="Segoe UI, Arial, sans-serif" font-size="12" font-weight="700" fill="#FFF7ED">Node.js</text>
      <rect x="532" y="0" width="82" height="30" rx="8" fill="#0369A1" fill-opacity="0.82"/>
      <text x="556" y="20" font-family="Segoe UI, Arial, sans-serif" font-size="12" font-weight="700" fill="#F0F9FF">React</text>
    </g>
  </g>

  <g transform="translate(710 74)" filter="url(#softShadow)">
    <rect x="0" y="0" width="385" height="230" rx="24" fill="#020617" fill-opacity="0.48" stroke="#60A5FA" stroke-opacity="0.45"/>
    <text x="28" y="38" font-family="Segoe UI, Arial, sans-serif" font-size="17" font-weight="800" fill="#E0F2FE">From data to product</text>

    <g transform="translate(28 68)">
      <rect x="0" y="0" width="74" height="42" rx="10" fill="#0F172A" stroke="#22D3EE"/>
      <text x="17" y="27" font-family="Segoe UI, Arial, sans-serif" font-size="11" font-weight="800" fill="#CFFAFE">DATA</text>

      <path d="M82 21H112" stroke="#93C5FD" stroke-width="2"/>
      <path d="M106 14L114 21L106 28" stroke="#93C5FD" stroke-width="2" fill="none"/>

      <rect x="122" y="0" width="80" height="42" rx="10" fill="#0F172A" stroke="#34D399"/>
      <text x="140" y="27" font-family="Segoe UI, Arial, sans-serif" font-size="11" font-weight="800" fill="#D1FAE5">MODEL</text>

      <path d="M210 21H240" stroke="#93C5FD" stroke-width="2"/>
      <path d="M234 14L242 21L234 28" stroke="#93C5FD" stroke-width="2" fill="none"/>

      <rect x="250" y="0" width="76" height="42" rx="10" fill="#0F172A" stroke="#FBBF24"/>
      <text x="268" y="27" font-family="Segoe UI, Arial, sans-serif" font-size="11" font-weight="800" fill="#FEF3C7">VALUE</text>
    </g>

    <g transform="translate(35 132)">
      <circle cx="8" cy="8" r="4" fill="#38BDF8"/>
      <text x="24" y="13" font-family="Segoe UI, Arial, sans-serif" font-size="14" font-weight="650" fill="#E5E7EB">Clean and explain data</text>
      <circle cx="8" cy="40" r="4" fill="#34D399"/>
      <text x="24" y="45" font-family="Segoe UI, Arial, sans-serif" font-size="14" font-weight="650" fill="#E5E7EB">Build dashboards and APIs</text>
      <circle cx="8" cy="72" r="4" fill="#FBBF24"/>
      <text x="24" y="77" font-family="Segoe UI, Arial, sans-serif" font-size="14" font-weight="650" fill="#E5E7EB">Evaluate ML with clear metrics</text>
    </g>
  </g>

  <g opacity="0.9">
    <circle cx="1115" cy="336" r="4" fill="#60A5FA"/>
    <circle cx="1137" cy="336" r="4" fill="#34D399"/>
    <circle cx="1159" cy="336" r="4" fill="#FBBF24"/>
  </g>
</svg>
